<svg xmlns="http://www.w3.org/2000/svg" width="484.803" height="484.803"><g><title>background</title><rect id="canvas_background" width="582" height="402" x="-1" y="-1" fill="none"/></g><g><title>Layer 1</title><path id="svg_3" fill="#fff" d="m341.209,327.117c-8.801,0.062 -15.002,3.724 -17.707,5.076c-2.057,1.027 -58.1,33.429 -69.803,40.443c-4.778,2.865 -8.455,3.932 -11.485,4.028c-3.032,-0.097 -6.708,-1.163 -11.486,-4.028c-11.702,-7.016 -67.747,-39.416 -69.803,-40.443c-2.705,-1.354 -8.906,-5.016 -17.708,-5.076c-41.978,0.162 -91.578,36.791 -91.578,82.479l0,75.207l190.575,0l190.573,0l0,-75.207c0,-45.688 -49.599,-82.317 -91.578,-82.479zm-113.078,133.428l-152.234,0l0,-50.948c0,-29.17 33.742,-55.278 62.519,-57.977c-2.703,18.885 -8.751,45.448 -9.165,47.258c-0.005,0.024 -0.011,0.046 -0.016,0.07c-0.002,0.011 -0.009,0.036 -0.009,0.036l0.003,0.005c-0.126,0.631 -0.194,1.283 -0.194,1.953c0,5.453 4.375,9.878 9.807,9.972c0.312,0.038 0.625,0.047 0.942,0.01c18.714,-2.222 57.887,-12.938 79.506,-16.819l8.841,5.125l0,61.315zm180.398,0l-152.233,0l0,-61.315l8.841,-5.125c21.619,3.882 60.793,14.599 79.506,16.819c0.316,0.037 0.631,0.028 0.943,-0.01c5.432,-0.094 9.807,-4.52 9.807,-9.972c0,-0.67 -0.068,-1.322 -0.193,-1.953l0.002,-0.005c0,0 -0.006,-0.025 -0.01,-0.036c-0.004,-0.024 -0.01,-0.046 -0.014,-0.07c-0.414,-1.81 -6.463,-28.373 -9.166,-47.258c28.775,2.696 62.52,28.807 62.52,57.977l0,50.948l-0.003,0z"/><path id="svg_4" fill="#fff" d="m185.738,175.017c-13.538,0 -24.516,10.977 -24.516,24.494c0,13.507 10.978,24.5 24.516,24.5c13.5,0 24.477,-10.958 24.477,-24.5c0,-13.518 -10.977,-24.494 -24.477,-24.494zm5.021,40.103c-6.938,0 -12.557,-5.632 -12.557,-12.587c0,-6.922 5.619,-12.554 12.557,-12.554c6.933,0 12.534,5.632 12.534,12.554c0.001,6.955 -5.601,12.587 -12.534,12.587z"/><path id="svg_5" fill="#fff" d="m92.301,240.869c13.688,24.14 33.754,46.081 57.086,62.3c27.946,19.427 58.888,29.694 89.48,29.694c1.511,0 3.022,-0.033 4.534,-0.084c1.511,0.051 3.023,0.084 4.535,0.084c30.592,0 61.533,-10.268 89.479,-29.694c23.332,-16.219 41.398,-38.16 55.086,-62.3c13.434,-0.815 24.494,-6.294 32.145,-15.966c7.6,-9.611 11.453,-22.732 11.453,-38.999c0,-14.268 -3.207,-26.795 -9.021,-36.654c-4.832,-9.184 -11.711,-16.042 -20.771,-19.838c-8.729,-33.378 -36.43,-64.419 -64.141,-88.335c-30.691,-26.489 -68.241,-41.077 -105.735,-41.077c-37.329,0 -74.1,14.662 -103.539,41.285c-26.104,23.607 -44.991,54.854 -53.632,88.543c-8.996,3.871 -16.314,10.573 -21.534,19.423c-5.814,9.859 -9.021,22.387 -9.021,36.654c0,16.267 3.854,29.388 11.454,38.999c7.649,9.671 18.71,15.15 32.142,15.965zm26.191,-102.796c16.846,-8.716 40.593,-23.982 61.47,-46.987c5.107,-5.628 9.232,-2.378 12.89,1.214c51.157,50.242 120.222,55.588 158.755,56.95l13.447,0l-19.457,18.486c-10.293,-10.588 -25.516,-17.312 -42.486,-17.312c-22.438,0 -41.83,11.742 -50.785,28.652l-17.846,0c-8.956,-16.91 -28.349,-28.652 -50.786,-28.652c-16.971,0 -32.193,6.724 -42.485,17.312l-19.457,-18.486l-6.843,-6.502c0.924,-1.834 2.087,-3.432 3.583,-4.675zm229.592,62.035c0,21.273 -20.176,38.581 -44.973,38.581s-44.973,-17.308 -44.973,-38.581c0,-21.274 20.176,-38.582 44.973,-38.582s44.973,17.308 44.973,38.582zm-119.419,0c0,21.273 -20.175,38.581 -44.972,38.581c-24.798,0 -44.974,-17.308 -44.974,-38.581c0,-21.274 20.176,-38.582 44.974,-38.582c24.797,0 44.972,17.308 44.972,38.582zm-138.89,-50.853c1.104,7.594 5.397,31.961 15.146,33.501c4.943,0.78 5.801,-5.338 6.164,-13.421l18.543,17.617c-1.302,4.193 -2.011,8.602 -2.011,13.156c0,27.396 25.155,49.683 56.075,49.683c29.993,0 54.56,-20.974 56.004,-47.237l3.58,0l0.25,0l3.58,0c1.444,26.264 26.012,47.237 56.004,47.237c30.92,0 56.076,-22.287 56.076,-49.683c0,-4.555 -0.709,-8.963 -2.012,-13.156l16.543,-17.617c0.363,8.083 1.221,14.201 6.164,13.421c9.748,-1.54 14.041,-25.907 15.146,-33.501c17.746,5.831 19.164,29.4 19.164,36.649c0,22.007 -8.498,33.165 -25.254,33.165c-0.385,0 -0.951,-0.045 -1.551,-0.093l-7.791,-0.586l-3.322,6.446c-21.385,41.479 -69.291,86.12 -128.34,86.12c-1.477,0 -2.945,-0.036 -4.409,-0.093l0,-0.008c-0.042,0.002 -0.083,0.002 -0.125,0.004c-0.042,-0.002 -0.083,-0.002 -0.125,-0.004l0,0.008c-1.464,0.057 -2.933,0.093 -4.409,0.093c-59.048,0 -108.955,-44.642 -130.339,-86.12l-3.323,-6.446l-7.79,0.586c-0.6,0.048 -1.167,0.093 -1.551,0.093c-16.757,0 -25.254,-11.158 -25.254,-33.165c0.003,-7.249 1.421,-30.818 19.167,-36.649z"/><path id="svg_6" fill="#fff" d="m301.066,175.017c-13.5,0 -24.479,10.977 -24.479,24.494c0,13.542 10.979,24.5 24.479,24.5c13.537,0 24.516,-10.993 24.516,-24.5c0,-13.518 -10.978,-24.494 -24.516,-24.494zm-5.021,40.103c-6.934,0 -12.533,-5.632 -12.533,-12.587c0,-6.922 5.602,-12.554 12.533,-12.554c6.938,0 12.557,5.632 12.557,12.554c0,6.955 -5.62,12.587 -12.557,12.587z"/></g></svg>