<svg xmlns="http://www.w3.org/2000/svg" width="256" height="256" preserveAspectRatio="xMinYMin meet"><g><title>background</title><rect id="canvas_background" width="582" height="402" x="-1" y="-1" fill="none"/></g><g><title>Layer 1</title><path id="svg_1" fill="#000" d="m0,222.991c0,18.232 14.779,33.009 33.009,33.009l189.981,0c18.233,0 33.01,-14.779 33.01,-33.009l0,-189.981c0,-18.233 -14.779,-33.01 -33.009,-33.01l-189.981,0c-18.233,0 -33.01,14.779 -33.01,33.009l0,189.981l0,0.001z"/><path id="svg_2" fill="#FFF" d="m106.158,113.238l0,-36.253l31.911,0c3.04,0 5.97,0.253 8.792,0.76c2.822,0.506 5.319,1.41 7.49,2.713c2.17,1.303 3.907,3.112 5.21,5.427c1.302,2.316 1.954,5.283 1.954,8.9c0,6.513 -1.954,11.217 -5.862,14.111c-3.907,2.895 -8.9,4.342 -14.979,4.342l-34.516,0zm-34.083,-62.738l0,155l75.112,0c6.947,0 13.713,-0.868 20.298,-2.605c6.585,-1.737 12.446,-4.414 17.584,-8.032c5.137,-3.618 9.226,-8.286 12.265,-14.002c3.04,-5.717 4.559,-12.483 4.559,-20.298c0,-9.697 -2.352,-17.982 -7.055,-24.856c-4.704,-6.875 -11.832,-11.687 -21.384,-14.437c6.947,-3.328 12.194,-7.598 15.74,-12.808c3.545,-5.21 5.318,-11.722 5.318,-19.538c0,-7.236 -1.194,-13.314 -3.582,-18.235c-2.388,-4.92 -5.753,-8.864 -10.095,-11.831c-4.341,-2.967 -9.551,-5.102 -15.63,-6.404c-6.078,-1.303 -12.808,-1.954 -20.189,-1.954l-72.941,0zm34.083,128.515l0,-42.549l37.121,0c7.381,0 13.315,1.7 17.802,5.102c4.486,3.401 6.73,9.081 6.73,17.041c0,4.053 -0.688,7.381 -2.063,9.986c-1.375,2.605 -3.22,4.668 -5.536,6.187c-2.315,1.52 -4.993,2.605 -8.032,3.257c-3.04,0.65 -6.223,0.976 -9.552,0.976l-36.47,0z"/></g></svg>