<svg id="Layer_1" enable-background="new 0 0 512 512" viewBox="0 0 512 512" xmlns="http://www.w3.org/2000/svg"><g><g><path d="m488.533 4.267c-2.133-2.134-4.267-4.267-8.533-4.267h-448c-2.133 0-6.4 2.133-8.533 4.267-2.134 2.133-2.134 4.267-2.134 8.533l42.667 426.667c0 4.267 4.267 8.533 6.4 8.533l192 64h4.267 4.267l170.666-64c4.267-2.133 6.4-4.267 6.4-8.533l42.667-426.667c0-2.133 0-6.4-2.134-8.533zm-125.866 362.667c0 4.267-4.267 6.4-6.4 8.533l-85.333 32c-2.133 0-2.133 0-4.267 0-2.133 0-2.133 0-4.267 0l-96-32c-4.267-2.133-6.4-4.267-6.4-8.533l-10.667-53.334c-2.133-6.4 2.133-10.667 8.533-12.8s10.667 2.133 12.8 8.533l8.533 46.934 87.467 29.867 76.8-27.733 21.334-119.467h-213.333c-6.4 0-10.667-4.267-10.667-10.667s4.267-10.667 10.667-10.667h217.6l14.934-85.333h-243.2c-6.4 0-10.667-4.267-10.667-10.667s4.267-10.667 10.667-10.667h256c2.133 0 6.4 2.133 8.533 4.267 2.133 2.133 2.133 6.4 2.133 8.533z"/></g></g><g/><g/><g/><g/><g/><g/><g/><g/><g/><g/><g/><g/><g/><g/><g/></svg>