<svg xmlns="http://www.w3.org/2000/svg" xmlns:xlink="http://www.w3.org/1999/xlink" id="eo3pbhpubd2s1" shape-rendering="geometricPrecision" text-rendering="geometricPrecision" viewBox="0 0 1058 785"><defs><clipPath id="eo3pbhpubd2s2"><rect id="eo3pbhpubd2s3" width="1057.7" height="784.983" fill="#FFF" stroke="none" stroke-width="1" rx="0" ry="0"/></clipPath></defs><rect id="eo3pbhpubd2s4" width="1058" height="785" fill="#FFF" stroke="none" stroke-width="1" rx="0" ry="0"/><g id="eo3pbhpubd2s5" clip-path="url(#eo3pbhpubd2s2)"><path id="eo3pbhpubd2s6" fill="#E73C73" stroke="none" stroke-width="1" d="M209.730000,115.430000C204.250000,122.080000,202.140000,131.430000,199.780000,140.220000C180.780000,211.060000,133.960000,268.040000,80.640000,308.740000C58.060000,325.980000,30.570000,349.100000,35.510000,380.010000C38.170000,396.610000,49.840000,408.830000,58.510000,422.350000C76.700000,450.660000,82.600000,489.140000,73.930000,523.030000C64.070000,561.590000,36.510000,597.570000,45.040000,636.560000C50.300000,660.560000,68.160000,677.640000,85.330000,692.320000C112.117000,715.207000,139.757000,736.647000,168.250000,756.640000C187.350000,770.040000,207.670000,783.080000,229.930000,784.780000C249.530000,786.280000,268.730000,778.830000,287.340000,771.480000C303.600000,765.050000,320.270000,758.360000,333.400000,745.480000C341.970000,737.070000,348.800000,726.220000,358.320000,719.340000C380.680000,703.180000,409.400000,713.420000,435.040000,720.340000C495.540000,736.580000,560.290000,730.650000,617.860000,703.600000C706.170000,662.100000,773.480000,574.950000,859.860000,528.190000C897,508.080000,937.400000,495.600000,971.790000,469.700000C991.165000,454.953000,1007.820000,436.936000,1020.990000,416.460000C1046.990000,376.350000,1061.050000,325.210000,1056.990000,275.150000C1052.930000,225.090000,1030.180000,176.850000,994.450000,148.590000C956.200000,118.340000,907.890000,112.690000,864.370000,94.530000C819.430000,75.770000,779.450000,43.530000,734.940000,23.400000C698.924000,7.156650,659.728000,-0.817160,620.228000,0.063614C580.728000,0.944389,541.926000,10.657400,506.670000,28.490000C458.230000,52.990000,409.130000,110.150000,355.180000,114.490000C316.740000,117.490000,239.750000,79.010000,209.730000,115.430000Z" opacity=".1"/><path id="eo3pbhpubd2s7" fill="none" stroke="#E73C73" stroke-miterlimit="10" stroke-width="1" d="M842.100000,448.320000C842.100000,448.320000,859.600000,482.670000,845.340000,501.460000C831.080000,520.250000,846.640000,571.460000,846.640000,571.460000"/><path id="eo3pbhpubd2s8" fill="#E73C73" stroke="none" stroke-width="1" d="M847.280000,437.630000C847.280000,444.250000,842.420000,449.630000,842.420000,449.630000C842.420000,449.630000,837.560000,444.260000,837.560000,437.630000C837.560000,431,842.420000,425.630000,842.420000,425.630000C842.420000,425.630000,847.280000,431.010000,847.280000,437.630000Z"/><path id="eo3pbhpubd2s9" fill="none" stroke="#E73C73" stroke-miterlimit="10" stroke-width="1" d="M851.170000,448.320000C851.170000,448.320000,833.670000,482.670000,847.930000,501.460000C862.190000,520.250000,846.630000,571.460000,846.630000,571.460000"/><path id="eo3pbhpubd2s10" fill="#E73C73" stroke="none" stroke-width="1" d="M845.990000,437.630000C845.990000,444.250000,850.850000,449.630000,850.850000,449.630000C850.850000,449.630000,855.710000,444.260000,855.710000,437.630000C855.710000,431,850.850000,425.630000,850.850000,425.630000C850.850000,425.630000,845.990000,431.010000,845.990000,437.630000Z"/><path id="eo3pbhpubd2s11" fill="#000" stroke="none" stroke-width="1" d="M845.990000,437.630000C845.990000,444.250000,850.850000,449.630000,850.850000,449.630000C850.850000,449.630000,855.710000,444.260000,855.710000,437.630000C855.710000,431,850.850000,425.630000,850.850000,425.630000C850.850000,425.630000,845.990000,431.010000,845.990000,437.630000Z" opacity=".1"/><path id="eo3pbhpubd2s12" fill="none" stroke="#E73C73" stroke-miterlimit="10" stroke-width="1" d="M858.300000,448.320000C858.300000,448.320000,875.800000,482.670000,861.540000,501.460000C847.280000,520.250000,862.840000,571.460000,862.840000,571.460000"/><path id="eo3pbhpubd2s13" fill="#E73C73" stroke="none" stroke-width="1" d="M863.480000,437.630000C863.480000,444.250000,858.620000,449.630000,858.620000,449.630000C858.620000,449.630000,853.760000,444.260000,853.760000,437.630000C853.760000,431,858.620000,425.630000,858.620000,425.630000C858.620000,425.630000,863.480000,431.010000,863.480000,437.630000Z"/><path id="eo3pbhpubd2s14" fill="#E73C73" stroke="none" stroke-width="1" d="M860.760000,465.150000C856.170000,469.920000,848.940000,470.420000,848.940000,470.420000C848.940000,470.420000,849.160000,463.180000,853.750000,458.420000C858.340000,453.660000,865.570000,453.150000,865.570000,453.150000C865.570000,453.150000,865.350000,460.380000,860.760000,465.150000Z"/><path id="eo3pbhpubd2s15" fill="#E73C73" stroke="none" stroke-width="1" d="M861.220000,488.850000C856.630000,493.620000,849.400000,494.120000,849.400000,494.120000C849.400000,494.120000,849.620000,486.880000,854.210000,482.120000C858.800000,477.360000,866.030000,476.850000,866.030000,476.850000C866.030000,476.850000,865.850000,484.070000,861.220000,488.850000Z"/><path id="eo3pbhpubd2s16" fill="#E73C73" stroke="none" stroke-width="1" d="M836.320000,501.880000C840.660000,506.880000,840.510000,514.120000,840.510000,514.120000C840.510000,514.120000,833.320000,513.250000,828.980000,508.250000C824.640000,503.250000,824.790000,496.010000,824.790000,496.010000C824.790000,496.010000,831.980000,496.880000,836.320000,501.880000Z"/><path id="eo3pbhpubd2s17" fill="#E73C73" stroke="none" stroke-width="1" d="M840.350000,451.350000C845.870000,455.010000,847.660000,462.030000,847.660000,462.030000C847.660000,462.030000,840.500000,463.120000,834.980000,459.460000C829.460000,455.800000,827.670000,448.780000,827.670000,448.780000C827.670000,448.780000,834.850000,447.690000,840.350000,451.350000Z"/><path id="eo3pbhpubd2s18" fill="#000" stroke="none" stroke-width="1" d="M840.350000,451.350000C845.870000,455.010000,847.660000,462.030000,847.660000,462.030000C847.660000,462.030000,840.500000,463.120000,834.980000,459.460000C829.460000,455.800000,827.670000,448.780000,827.670000,448.780000C827.670000,448.780000,834.850000,447.690000,840.350000,451.350000Z" opacity=".1"/><path id="eo3pbhpubd2s19" fill="none" stroke="#E73C73" stroke-miterlimit="10" stroke-width="1" d="M867.370000,448.320000C867.370000,448.320000,849.850000,482.670000,864.130000,501.490000C878.410000,520.310000,862.830000,571.490000,862.830000,571.490000"/><path id="eo3pbhpubd2s20" fill="#E73C73" stroke="none" stroke-width="1" d="M862.190000,437.630000C862.190000,444.250000,867.050000,449.630000,867.050000,449.630000C867.050000,449.630000,871.910000,444.260000,871.910000,437.630000C871.910000,431,867.050000,425.630000,867.050000,425.630000C867.050000,425.630000,862.190000,431.010000,862.190000,437.630000Z"/><path id="eo3pbhpubd2s21" fill="#000" stroke="none" stroke-width="1" d="M862.190000,437.630000C862.190000,444.250000,867.050000,449.630000,867.050000,449.630000C867.050000,449.630000,871.910000,444.260000,871.910000,437.630000C871.910000,431,867.050000,425.630000,867.050000,425.630000C867.050000,425.630000,862.190000,431.010000,862.190000,437.630000Z" opacity=".1"/><path id="eo3pbhpubd2s22" fill="#E73C73" stroke="none" stroke-width="1" d="M863.590000,465.660000C858.940000,470.380000,858.590000,477.660000,858.590000,477.660000C858.590000,477.660000,865.820000,477.250000,870.470000,472.530000C875.120000,467.810000,875.470000,460.530000,875.470000,460.530000C875.470000,460.530000,868.230000,460.940000,863.590000,465.660000Z"/><path id="eo3pbhpubd2s23" fill="#000" stroke="none" stroke-width="1" d="M863.590000,465.660000C858.940000,470.380000,858.590000,477.660000,858.590000,477.660000C858.590000,477.660000,865.820000,477.250000,870.470000,472.530000C875.120000,467.810000,875.470000,460.530000,875.470000,460.530000C875.470000,460.530000,868.230000,460.940000,863.590000,465.660000Z" opacity=".1"/><path id="eo3pbhpubd2s24" fill="#E73C73" stroke="none" stroke-width="1" d="M872.700000,498.490000C868.050000,503.210000,867.700000,510.490000,867.700000,510.490000C867.700000,510.490000,874.930000,510.080000,879.580000,505.360000C884.230000,500.640000,884.580000,493.360000,884.580000,493.360000C884.580000,493.360000,877.350000,493.750000,872.700000,498.490000Z"/><path id="eo3pbhpubd2s25" fill="none" stroke="#E73C73" stroke-miterlimit="10" stroke-width="1" d="M859.290000,491.260000C859.290000,491.260000,869.820000,474.660000,884.610000,474.260000"/><path id="eo3pbhpubd2s26" fill="none" stroke="#E73C73" stroke-miterlimit="10" stroke-width="1" d="M851.090000,481.230000C851.090000,481.230000,840.560000,464.630000,825.770000,464.230000"/><path id="eo3pbhpubd2s27" fill="none" stroke="#E73C73" stroke-miterlimit="10" stroke-width="1" d="M849.720000,504.930000C849.720000,504.930000,860.250000,488.330000,875.040000,487.930000"/><path id="eo3pbhpubd2s28" fill="#E73C73" stroke="none" stroke-width="1" d="M884.130000,476.900000C885.638000,476.900000,886.860000,475.678000,886.860000,474.170000C886.860000,472.662000,885.638000,471.440000,884.130000,471.440000C882.622000,471.440000,881.400000,472.662000,881.400000,474.170000C881.400000,475.678000,882.622000,476.900000,884.130000,476.900000Z"/><path id="eo3pbhpubd2s29" fill="#E73C73" stroke="none" stroke-width="1" d="M826.030000,467.100000C827.538000,467.100000,828.760000,465.878000,828.760000,464.370000C828.760000,462.862000,827.538000,461.640000,826.030000,461.640000C824.522000,461.640000,823.300000,462.862000,823.300000,464.370000C823.300000,465.878000,824.522000,467.100000,826.030000,467.100000Z"/><path id="eo3pbhpubd2s30" fill="none" stroke="#E73C73" stroke-miterlimit="10" stroke-width="1" d="M857.470000,510.400000C857.470000,510.400000,846.940000,493.800000,832.150000,493.400000"/><path id="eo3pbhpubd2s31" fill="#E73C73" stroke="none" stroke-width="1" d="M832.410000,496.270000C833.918000,496.270000,835.140000,495.048000,835.140000,493.540000C835.140000,492.032000,833.918000,490.810000,832.410000,490.810000C830.902000,490.810000,829.680000,492.032000,829.680000,493.540000C829.680000,495.048000,830.902000,496.270000,832.410000,496.270000Z"/><path id="eo3pbhpubd2s32" fill="#E73C73" stroke="none" stroke-width="1" d="M875.240000,490.800000C876.748000,490.800000,877.970000,489.578000,877.970000,488.070000C877.970000,486.562000,876.748000,485.340000,875.240000,485.340000C873.732000,485.340000,872.510000,486.562000,872.510000,488.070000C872.510000,489.578000,873.732000,490.800000,875.240000,490.800000Z"/><path id="eo3pbhpubd2s33" fill="#A8A8A8" stroke="none" stroke-width="1" d="M915.690000,551.490000C915.690000,551.490000,890.310000,546.410000,883.540000,539.640000C876.770000,532.870000,846.310000,521.060000,842.930000,529.490000C839.550000,537.920000,797.240000,566.720000,826.010000,571.800000C854.780000,576.880000,893.700000,578.570000,902.160000,575.180000C910.620000,571.790000,915.690000,551.490000,915.690000,551.490000Z"/><path id="eo3pbhpubd2s34" fill="#000" stroke="none" stroke-width="1" d="M826,568.680000C854.770000,573.760000,893.690000,575.450000,902.150000,572.060000C908.590000,569.480000,913.070000,557.060000,914.840000,551.340000L915.690000,551.520000C915.690000,551.520000,910.610000,571.830000,902.150000,575.210000C893.690000,578.590000,854.770000,576.900000,826,571.830000C817.700000,570.360000,815.320000,566.920000,816.220000,562.570000C816.930000,565.400000,819.850000,567.590000,826,568.680000Z" opacity=".2"/><path id="eo3pbhpubd2s35" fill="#E73C73" stroke="none" stroke-width="1" d="M67.250000,588.150000C67.250000,588.150000,75.630000,599.150000,63.380000,615.650000C51.130000,632.150000,41.030000,646.160000,45.120000,656.490000C45.120000,656.490000,63.600000,625.760000,78.640000,625.330000C93.680000,624.900000,83.790000,606.630000,67.250000,588.150000Z"/><path id="eo3pbhpubd2s36" fill="#000" stroke="none" stroke-width="1" d="M67.250000,588.150000C67.980200,589.210000,68.556000,590.368000,68.960000,591.590000C83.640000,608.830000,91.450000,624.920000,77.350000,625.330000C64.210000,625.710000,48.450000,649.200000,44.670000,655.140000C44.794700,655.598000,44.945000,656.049000,45.120000,656.490000C45.120000,656.490000,63.600000,625.760000,78.640000,625.330000C93.680000,624.900000,83.790000,606.630000,67.250000,588.150000Z" opacity=".1"/><path id="eo3pbhpubd2s37" fill="#FFD037" stroke="none" stroke-width="1" d="M82.850000,602.110000C82.850000,605.970000,82.420000,609.110000,81.850000,609.110000C81.280000,609.110000,80.850000,605.980000,80.850000,602.110000C80.850000,598.240000,81.390000,600.110000,81.920000,600.110000C82.450000,600.110000,82.850000,598.260000,82.850000,602.110000Z"/><path id="eo3pbhpubd2s38" fill="#FFD037" stroke="none" stroke-width="1" d="M88.170000,606.720000C84.780000,608.570000,81.830000,609.720000,81.580000,609.210000C81.330000,608.700000,83.860000,606.860000,87.250000,605.020000C90.640000,603.180000,89.300000,604.520000,89.560000,605.020000C89.820000,605.520000,91.560000,604.870000,88.170000,606.720000Z"/><path id="eo3pbhpubd2s39" fill="#E73C73" stroke="none" stroke-width="1" d="M22.980000,588.150000C22.980000,588.150000,14.600000,599.150000,26.850000,615.650000C39.100000,632.150000,49.200000,646.160000,45.110000,656.480000C45.110000,656.480000,26.630000,625.750000,11.590000,625.320000C-3.449990,624.890000,6.440010,606.630000,22.980000,588.150000Z"/><path id="eo3pbhpubd2s40" fill="#000" stroke="none" stroke-width="1" d="M22.980000,588.150000C22.249800,589.210000,21.674000,590.368000,21.270000,591.590000C6.600010,608.830000,-1.219990,624.920000,12.850000,625.320000C25.990000,625.700000,41.750000,649.190000,45.530000,655.130000C45.405300,655.588000,45.255000,656.039000,45.080000,656.480000C45.080000,656.480000,26.600000,625.750000,11.560000,625.320000C-3.479990,624.890000,6.440000,606.630000,22.980000,588.150000Z" opacity=".1"/><path id="eo3pbhpubd2s41" fill="#FFD037" stroke="none" stroke-width="1" d="M7.410000,602.110000C7.410000,605.970000,7.840000,609.110000,8.410000,609.110000C8.980000,609.110000,9.410000,605.980000,9.410000,602.110000C9.410000,598.240000,8.870000,600.110000,8.340000,600.110000C7.810000,600.110000,7.410000,598.260000,7.410000,602.110000Z"/><path id="eo3pbhpubd2s42" fill="#FFD037" stroke="none" stroke-width="1" d="M2.060010,606.720000C5.450010,608.570000,8.400010,609.720000,8.650010,609.210000C8.900010,608.700000,6.370000,606.860000,2.980000,605.020000C-0.409997,603.180000,0.930006,604.520000,0.670006,605.020000C0.410006,605.520000,-1.329990,604.870000,2.060010,606.720000Z"/><path id="eo3pbhpubd2s43" fill="#A8A8A8" stroke="none" stroke-width="1" d="M10.070000,655.040000C10.070000,655.040000,33.500000,654.320000,40.560000,649.290000C47.620000,644.260000,76.560000,638.290000,78.350000,646.290000C80.140000,654.290000,113.560000,686.400000,87.110000,686.610000C60.660000,686.820000,25.650000,682.490000,18.610000,678.230000C11.570000,673.970000,10.070000,655.040000,10.070000,655.040000Z"/><path id="eo3pbhpubd2s44" fill="#000" stroke="none" stroke-width="1" d="M87.590000,683.840000C61.140000,684.050000,26.130000,679.720000,19.080000,675.430000C13.710000,672.160000,11.570000,660.430000,10.860000,655.020000L10.080000,655.020000C10.080000,655.020000,11.560000,673.920000,18.610000,678.210000C25.660000,682.500000,60.670000,686.840000,87.120000,686.620000C94.760000,686.560000,97.390000,683.840000,97.250000,679.820000C96.190000,682.280000,93.270000,683.790000,87.590000,683.840000Z" opacity=".2"/><path id="eo3pbhpubd2s45" fill="#E73C73" stroke="none" stroke-width="1" d="M387,554.303000L344.293000,512.159000L330.947000,525.683000L373.654000,567.827000L387,554.303000Z"/><path id="eo3pbhpubd2s46" fill="#000" stroke="none" stroke-width="1" d="M387,554.303000L344.293000,512.159000L330.947000,525.683000L373.654000,567.827000L387,554.303000Z" opacity=".1"/><path id="eo3pbhpubd2s47" fill="#DB8B8B" stroke="none" stroke-width="1" d="M354.480000,491.990000C354.480000,491.990000,379.270000,478.910000,388.850000,470.490000C394.617000,465.444000,400.818000,460.917000,407.380000,456.960000L438.480000,438.030000L503.480000,433.030000L506.480000,444.030000C506.480000,444.030000,511.480000,460.030000,461.480000,474.030000C411.480000,488.030000,386.480000,510.030000,386.480000,510.030000C386.480000,510.030000,354.480000,520.990000,354.480000,491.990000Z"/><path id="eo3pbhpubd2s48" fill="#000" stroke="none" stroke-width="1" d="M389.130000,507.860000C387.360000,509.210000,386.480000,509.990000,386.480000,509.990000C386.480000,509.990000,354.480000,520.990000,354.480000,491.990000C354.480000,491.990000,356.030000,491.170000,358.480000,489.800000C360.955000,493.831000,364.423000,497.160000,368.551000,499.469000C372.679000,501.778000,377.330000,502.990000,382.060000,502.990000L385.450000,502.990000L389.130000,507.860000Z" opacity=".1"/><path id="eo3pbhpubd2s49" fill="#000" stroke="none" stroke-width="1" d="M505.540000,449.550000C502.760000,455.440000,493.170000,465.120000,461.480000,473.990000C420.870000,485.360000,396.750000,501.990000,389.130000,507.860000C387.360000,509.210000,386.480000,509.990000,386.480000,509.990000C386.480000,509.990000,354.480000,520.990000,354.480000,491.990000C354.480000,491.990000,356.030000,491.170000,358.480000,489.800000C365.910000,485.730000,381.640000,476.800000,388.820000,470.450000C394.586000,465.403000,400.787000,460.875000,407.350000,456.920000L438.450000,437.990000L450.030000,437.100000L503.450000,432.990000L506.450000,443.990000C506.450000,443.990000,507.150000,446.140000,505.540000,449.550000Z" opacity=".05"/><path id="eo3pbhpubd2s50" fill="#ABB1D1" stroke="none" stroke-width="1" d="M354.980000,485.490000L328.480000,502.990000L406.080000,567.990000C406.080000,567.990000,417.480000,560.990000,411.480000,552.990000C411.480000,552.990000,391.480000,535.990000,390.480000,511.990000L384.480000,503.990000L381.090000,503.990000C375.358000,503.991000,369.767000,502.211000,365.089000,498.897000C360.412000,495.583000,356.880000,490.898000,354.980000,485.490000L354.980000,485.490000Z"/><path id="eo3pbhpubd2s51" fill="#000" stroke="none" stroke-width="1" d="M505.540000,449.550000C489.540000,441.820000,450.480000,440.990000,450.480000,440.990000L450.060000,437.100000L503.480000,432.990000L506.480000,443.990000C506.480000,443.990000,507.150000,446.140000,505.540000,449.550000Z" opacity=".1"/><path id="eo3pbhpubd2s52" fill="#ABB1D1" stroke="none" stroke-width="1" d="M450.480000,438.990000C450.480000,438.990000,497.480000,439.990000,509.480000,449.990000L503.480000,328.990000L438.480000,328.990000L450.480000,438.990000Z"/><path id="eo3pbhpubd2s53" fill="#000" stroke="none" stroke-width="1" d="M450.480000,438.490000C450.480000,438.490000,497.480000,439.490000,509.480000,449.490000L503.480000,328.490000L438.480000,328.490000L450.480000,438.490000Z" opacity=".05"/><path id="eo3pbhpubd2s54" fill="#535461" stroke="none" stroke-width="1" d="M488.240000,364.950000C488.240000,364.950000,605.890000,360.950000,608.290000,376.160000C610.690000,391.370000,490.640000,384.960000,490.640000,384.960000C490.640000,384.960000,481.040000,375.350000,488.240000,364.950000Z"/><path id="eo3pbhpubd2s55" fill="#000" stroke="none" stroke-width="1" d="M488.240000,364.950000C488.240000,364.950000,605.890000,360.950000,608.290000,376.160000C610.690000,391.370000,490.640000,384.960000,490.640000,384.960000C490.640000,384.960000,481.040000,375.350000,488.240000,364.950000Z" opacity=".05"/><path id="eo3pbhpubd2s56" fill="#E73C73" stroke="none" stroke-width="1" d="M393,425.780000L372.190000,425.780000L372.190000,606.660000L393,606.660000L393,425.780000Z"/><path id="eo3pbhpubd2s57" fill="#000" stroke="none" stroke-width="1" d="M393,425.770000L393,439.700000C386.080000,440.600000,379,441.170000,372.190000,441.390000L372.190000,425.770000L393,425.770000Z" opacity=".1"/><path id="eo3pbhpubd2s58" fill="#535461" stroke="none" stroke-width="1" d="M391.440000,410.780000C388.520000,410.554000,385.616000,410.164000,382.740000,409.610000C371.460000,407.450000,343.020000,402.920000,335.370000,410.610000C325.770000,420.210000,328.970000,437.020000,354.580000,439.420000C380.190000,441.820000,424.210000,435.420000,433.020000,425.810000C433.020000,425.770000,417.090000,412.750000,391.440000,410.780000Z"/><path id="eo3pbhpubd2s59" fill="#E73C73" stroke="none" stroke-width="1" d="M387.400000,475.400000L605.900000,407.370000L613.100000,424.180000L389,501.010000L387.400000,475.400000Z"/><path id="eo3pbhpubd2s60" fill="#E73C73" stroke="none" stroke-width="1" d="M452.230000,582.650000L609.900000,427.380000L618.700000,440.180000L468.230000,597.050000L452.230000,582.650000Z"/><path id="eo3pbhpubd2s61" fill="#000" stroke="none" stroke-width="1" d="M653.580000,529.850000C648.584000,531.142000,643.712000,532.872000,639.020000,535.020000L629.460000,508.310000C634.477000,506.123000,639.644000,504.295000,644.920000,502.840000L653.580000,529.850000Z" opacity=".1"/><path id="eo3pbhpubd2s62" fill="#E73C73" stroke="none" stroke-width="1" d="M680.330000,608.260000L669.130000,614.660000L590.990000,396.330000L587.490000,386.560000L605.900000,376.150000L610.510000,390.530000L680.330000,608.260000Z"/><path id="eo3pbhpubd2s63" fill="#000" stroke="none" stroke-width="1" d="M610.510000,390.530000L590.990000,396.330000L587.490000,386.560000L605.900000,376.150000L610.510000,390.530000Z" opacity=".1"/><path id="eo3pbhpubd2s64" fill="#535461" stroke="none" stroke-width="1" d="M491.440000,407.370000L601.090000,369.750000C601.090000,369.750000,620.300000,372.150000,613.090000,388.160000L502.650000,420.970000C502.650000,420.970000,485.850000,422.570000,491.440000,407.370000Z"/><path id="eo3pbhpubd2s65" fill="#000" stroke="none" stroke-width="1" d="M367.790000,615.860000C367.789000,621.994000,367.314000,628.119000,366.370000,634.180000C356.770000,633.490000,346.850000,632.490000,337.130000,631.490000C339.289000,619.599000,339.021000,607.394000,336.340000,595.610000C345.810000,593.610000,355.480000,591.700000,364.920000,589.970000C366.833000,598.467000,367.795000,607.150000,367.790000,615.860000L367.790000,615.860000Z" opacity=".1"/><path id="eo3pbhpubd2s66" fill="#000" stroke="none" stroke-width="1" d="M393,585.380000L393,606.650000L372.190000,606.650000L372.190000,588.650000C379.390000,587.400000,386.390000,586.290000,393,585.380000Z" opacity=".1"/><path id="eo3pbhpubd2s67" fill="#E73C73" stroke="none" stroke-width="1" d="M258.540000,615.490000C258.540000,615.490000,426.620000,571.490000,440.220000,588.280000C453.820000,605.070000,468.230000,627.490000,425.850000,635.490000C383.470000,643.490000,255.370000,621.880000,255.370000,621.880000L258.540000,615.490000Z"/><path id="eo3pbhpubd2s68" fill="#000" stroke="none" stroke-width="1" d="M341.210000,541.370000L319.850000,560.920000C316.067000,556.064000,311.791000,551.614000,307.090000,547.640000L327.030000,526.810000C332.164000,531.249000,336.908000,536.120000,341.210000,541.370000L341.210000,541.370000Z" opacity=".1"/><path id="eo3pbhpubd2s69" fill="#E73C73" stroke="none" stroke-width="1" d="M252.940000,606.660000L378.590000,475.400000L382.600000,505.810000L259.340000,618.660000L252.940000,606.660000Z"/><path id="eo3pbhpubd2s70" fill="#000" stroke="none" stroke-width="1" d="M251.340000,628.270000C258.415000,628.270000,264.150000,622.535000,264.150000,615.460000C264.150000,608.385000,258.415000,602.650000,251.340000,602.650000C244.265000,602.650000,238.530000,608.385000,238.530000,615.460000C238.530000,622.535000,244.265000,628.270000,251.340000,628.270000Z" opacity=".1"/><g id="eo3pbhpubd2s71"><path id="eo3pbhpubd2s72" fill="#535461" stroke="none" stroke-width="1" d="M255.230000,716.990000L248.960000,619.050000L248.830000,618.840000L242.510000,621.040000L213.430000,705.890000L167.180000,673.100000L240.850000,619.690000L240.920000,619.480000L241.340000,619.330000L246.090000,615.880000L168.850000,572.570000L149.930000,593.370000L152.930000,612.870000L241.750000,614.490000L241.750000,616.490000L151.270000,614.870000L147.850000,592.730000L173.750000,564.270000L212.500000,519.070000L213.190000,520.940000L221.390000,511.940000L251.850000,517.400000L251.850000,516.190000L253.850000,516.250000L253.850000,517.760000L299.210000,525.880000L256.920000,610.490000L250.750000,614.960000L250.750000,615.460000L250.750000,616.020000L348.550000,581.940000L336.940000,673.150000L253.940000,620.280000L251.020000,618.640000L299.960000,697.520000L255.230000,716.990000ZM251.230000,622.650000L257.080000,714.030000L297.130000,696.650000L251.230000,622.650000ZM170.650000,673.080000L212.440000,702.710000L239.780000,622.970000L170.650000,673.080000ZM252.970000,617.420000L255.060000,618.590000L335.410000,669.790000L346.210000,584.920000L252.970000,617.420000ZM245.870000,610.220000L248.380000,614.270000L248.820000,613.950000L251.820000,519.420000L222.080000,514.100000L213.920000,523.100000L245.870000,610.220000ZM170.450000,571.160000L245.290000,613.160000L243.990000,611.030000L212.410000,524.760000L175.220000,565.630000L170.450000,571.160000ZM253.850000,519.770000L250.850000,612.490000L255.370000,609.210000L296.280000,527.390000L253.850000,519.770000Z"/><path id="eo3pbhpubd2s73" fill="#535461" stroke="none" stroke-width="1" d="M364.920000,589.950000C360.909000,572.131000,352.790000,555.495000,341.210000,541.370000C336.911000,536.121000,332.171000,531.250000,327.040000,526.810000C307.314000,509.779000,282.491000,499.779000,256.467000,498.381000C230.443000,496.983000,204.692000,504.265000,183.254000,519.085000C161.816000,533.904000,145.906000,555.422000,138.020000,580.262000C130.134000,605.102000,130.719000,631.857000,139.683000,656.328000C148.647000,680.799000,165.482000,701.601000,187.547000,715.470000C209.612000,729.339000,235.657000,735.488000,261.595000,732.954000C287.533000,730.420000,311.895000,719.345000,330.858000,701.468000C349.822000,683.591000,362.312000,659.923000,366.370000,634.180000C367.314000,628.119000,367.789000,621.994000,367.790000,615.860000C367.797000,607.144000,366.834000,598.454000,364.920000,589.950000ZM249.730000,704.300000C231.498000,704.281000,213.714000,698.647000,198.797000,688.164000C183.879000,677.682000,172.552000,662.859000,166.356000,645.712000C160.160000,628.565000,159.395000,609.926000,164.165000,592.329000C168.935000,574.732000,179.009000,559.031000,193.018000,547.361000C207.026000,535.692000,224.288000,528.619000,242.457000,527.106000C260.627000,525.593000,278.821000,529.712000,294.567000,538.904000C310.312000,548.096000,322.845000,561.914000,330.460000,578.480000C338.076000,595.045000,340.405000,613.554000,337.130000,631.490000C333.380000,651.933000,322.580000,670.414000,306.611000,683.718000C290.642000,697.021000,270.514000,704.304000,249.730000,704.300000L249.730000,704.300000Z"/><path id="eo3pbhpubd2s74" fill="#535461" stroke="none" stroke-width="1" d="M249.730000,628.270000C256.805000,628.270000,262.540000,622.535000,262.540000,615.460000C262.540000,608.385000,256.805000,602.650000,249.730000,602.650000C242.655000,602.650000,236.920000,608.385000,236.920000,615.460000C236.920000,622.535000,242.655000,628.270000,249.730000,628.270000Z"/></g><path id="eo3pbhpubd2s75" fill="#000" stroke="none" stroke-width="1" d="M675.130000,627.070000C682.205000,627.070000,687.940000,621.335000,687.940000,614.260000C687.940000,607.185000,682.205000,601.450000,675.130000,601.450000C668.055000,601.450000,662.320000,607.185000,662.320000,614.260000C662.320000,621.335000,668.055000,627.070000,675.130000,627.070000Z" opacity=".1"/><g id="eo3pbhpubd2s76"><path id="eo3pbhpubd2s77" fill="#535461" stroke="none" stroke-width="1" d="M681.420000,717.390000L675.160000,619.490000L675.030000,619.280000L668.710000,621.480000L639.620000,706.290000L593.370000,673.490000L667.060000,620.080000L667.130000,619.870000L667.550000,619.720000L672.300000,616.270000L595.060000,572.960000L576.130000,593.760000L579.130000,613.260000L667.930000,614.840000L667.930000,616.840000L577.450000,615.220000L574.050000,593.110000L599.940000,564.660000L638.660000,519.490000L639.350000,521.360000L647.550000,512.360000L678.090000,517.830000L678.090000,516.620000L680.090000,516.680000L680.090000,518.190000L725.450000,526.310000L683.120000,610.960000L676.950000,615.430000L676.950000,615.930000L676.950000,616.490000L774.760000,582.410000L763.150000,673.620000L680.150000,620.750000L677.230000,619.110000L726.170000,698L681.420000,717.390000ZM677.420000,623.050000L683.270000,714.430000L723.320000,697.050000L677.420000,623.050000ZM596.850000,673.490000L638.640000,703.120000L665.980000,623.380000L596.850000,673.490000ZM679.170000,617.830000L681.260000,619L761.610000,670.200000L772.410000,585.330000L679.170000,617.830000ZM672.070000,610.630000L674.580000,614.680000L675.020000,614.360000L678.020000,519.830000L648.280000,514.490000L640.120000,523.490000L672.070000,610.630000ZM596.680000,571.580000L671.520000,613.580000L670.220000,611.450000L638.640000,525.180000L601.440000,566.060000L596.680000,571.580000ZM680.050000,520.190000L677.050000,612.880000L681.570000,609.600000L722.480000,527.780000L680.050000,520.190000Z"/><path id="eo3pbhpubd2s78" fill="#535461" stroke="none" stroke-width="1" d="M676.330000,498.610000C665.717000,498.598000,655.150000,500.024000,644.920000,502.850000C639.644000,504.305000,634.477000,506.133000,629.460000,508.320000C602.730000,519.907000,581.247000,540.997000,569.167000,567.508000C557.087000,594.019000,555.269000,624.069000,564.065000,651.843000C572.860000,679.618000,591.644000,703.143000,616.782000,717.869000C641.921000,732.594000,671.627000,737.473000,700.155000,731.562000C728.682000,725.650000,754.004000,709.369000,771.221000,685.867000C788.438000,662.365000,796.327000,633.312000,793.362000,604.330000C790.396000,575.348000,776.787000,548.495000,755.168000,528.966000C733.548000,509.438000,705.454000,498.622000,676.320000,498.610000L676.330000,498.610000ZM675.930000,704.700000C655.649000,704.692000,635.981000,697.746000,620.192000,685.017000C604.404000,672.288000,593.445000,654.541000,589.135000,634.723000C584.825000,614.905000,587.424000,594.209000,596.501000,576.073000C605.577000,557.936000,620.584000,543.450000,639.030000,535.020000C643.722000,532.872000,648.594000,531.142000,653.590000,529.850000C665.802000,526.680000,678.549000,526.147000,690.984000,528.287000C703.418000,530.427000,715.253000,535.191000,725.703000,542.261000C736.153000,549.332000,744.977000,558.547000,751.588000,569.293000C758.199000,580.039000,762.446000,592.069000,764.046000,604.585000C765.646000,617.100000,764.562000,629.812000,760.866000,641.875000C757.170000,653.939000,750.948000,665.077000,742.613000,674.548000C734.277000,684.020000,724.020000,691.608000,712.524000,696.806000C701.028000,702.005000,688.557000,704.696000,675.940000,704.700000L675.930000,704.700000Z"/><path id="eo3pbhpubd2s79" fill="#535461" stroke="none" stroke-width="1" d="M675.930000,628.670000C683.005000,628.670000,688.740000,622.935000,688.740000,615.860000C688.740000,608.785000,683.005000,603.050000,675.930000,603.050000C668.855000,603.050000,663.120000,608.785000,663.120000,615.860000C663.120000,622.935000,668.855000,628.670000,675.930000,628.670000Z"/></g><path id="eo3pbhpubd2s80" fill="#000" stroke="none" stroke-width="1" d="M448.220000,628.270000C462.364000,628.270000,473.830000,616.804000,473.830000,602.660000C473.830000,588.516000,462.364000,577.050000,448.220000,577.050000C434.076000,577.050000,422.610000,588.516000,422.610000,602.660000C422.610000,616.804000,434.076000,628.270000,448.220000,628.270000Z" opacity=".1"/><path id="eo3pbhpubd2s81" fill="#535461" stroke="none" stroke-width="1" d="M449.830000,628.270000C463.974000,628.270000,475.440000,616.804000,475.440000,602.660000C475.440000,588.516000,463.974000,577.050000,449.830000,577.050000C435.686000,577.050000,424.220000,588.516000,424.220000,602.660000C424.220000,616.804000,435.686000,628.270000,449.830000,628.270000Z"/><path id="eo3pbhpubd2s82" fill="#E73C73" stroke="none" stroke-width="1" d="M442.992000,600.736000L442.984000,600.742000C439.977000,602.991000,439.362000,607.253000,441.611000,610.260000L461.937000,637.441000C464.186000,640.448000,468.448000,641.063000,471.455000,638.814000L471.463000,638.808000C474.471000,636.559000,475.085000,632.297000,472.836000,629.290000L452.510000,602.109000C450.261000,599.102000,446,598.487000,442.992000,600.736000Z"/><path id="eo3pbhpubd2s83" fill="#DB8B8B" stroke="none" stroke-width="1" d="M565.480000,246.990000L563.100000,277.100000C562.826000,280.914000,562.876000,284.744000,563.250000,288.550000C563.560000,291.920000,563.250000,297.820000,559.950000,306.820000C555.713000,318.317000,553.523000,330.467000,553.480000,342.720000L553.480000,376.990000L530.480000,372.990000C530.480000,372.990000,531.480000,324.990000,527.480000,316.990000C523.480000,308.990000,530.480000,237.990000,530.480000,237.990000L565.480000,246.990000Z"/><path id="eo3pbhpubd2s84" fill="#000" stroke="none" stroke-width="1" d="M564.300000,261.910000L563.100000,277.100000C562.830000,280.911000,562.883000,284.738000,563.260000,288.540000C563.570000,291.910000,563.260000,297.810000,559.960000,306.820000C555.723000,318.317000,553.533000,330.467000,553.490000,342.720000L553.490000,376.990000L530.490000,372.990000C530.490000,372.990000,531.490000,324.990000,527.490000,316.990000C524.660000,311.320000,527.340000,274.050000,529.150000,252.780000C529.900000,244.030000,530.490000,237.990000,530.490000,237.990000L565.490000,246.990000L564.300000,261.910000Z" opacity=".05"/><path id="eo3pbhpubd2s85" fill="#DB8B8B" stroke="none" stroke-width="1" d="M451.500000,476.990000L442.850000,526.190000C441.759000,532.759000,440.086000,539.218000,437.850000,545.490000C432.780000,559.350000,436.020000,578.780000,438.480000,589.380000C439.570000,594.060000,440.480000,597.020000,440.480000,597.020000L414.480000,611.020000L406.480000,605.020000L406.480000,601.020000L405.480000,512.020000C399.480000,498.020000,401.480000,477.020000,405.480000,469.020000C406.617000,466.392000,407.417000,463.630000,407.860000,460.800000C409.860000,450.080000,410.480000,435.020000,410.480000,435.020000C410.480000,435.020000,426.480000,408.020000,445.480000,426.020000C452.480000,432.650000,455.140000,441.320000,455.700000,449.620000C456.680000,463.830000,451.500000,476.990000,451.500000,476.990000Z"/><path id="eo3pbhpubd2s86" fill="#000" stroke="none" stroke-width="1" d="M455.700000,449.590000C441.830000,457.830000,417.700000,460.160000,407.860000,460.770000C409.860000,450.050000,410.480000,434.990000,410.480000,434.990000C410.480000,434.990000,426.480000,407.990000,445.480000,425.990000C452.480000,432.620000,455.140000,441.290000,455.700000,449.590000Z" opacity=".1"/><path id="eo3pbhpubd2s87" fill="#ABB1D1" stroke="none" stroke-width="1" d="M489.480000,424.990000C478.846000,430.653000,468.797000,437.352000,459.480000,444.990000C443.480000,457.990000,403.480000,458.990000,403.480000,458.990000L403.480000,443.990000C404.480000,425.990000,387.480000,405.990000,364.480000,349.990000C349.790000,314.230000,353.860000,293.990000,358.720000,283.990000C361.480000,278.340000,364.480000,275.990000,364.480000,275.990000L489.480000,299.990000L493.950000,313.390000L503.480000,341.990000C503.480000,341.990000,468.480000,343.990000,462.480000,346.990000C456.480000,349.990000,460.480000,376.990000,460.480000,376.990000C454.480000,404.990000,489.480000,424.990000,489.480000,424.990000Z"/><path id="eo3pbhpubd2s88" fill="#000" stroke="none" stroke-width="1" d="M565.480000,246.990000L564.300000,261.910000C546.900000,266.910000,534.480000,250.990000,534.480000,250.990000C532.665000,251.477000,530.882000,252.074000,529.140000,252.780000C529.890000,244.030000,530.480000,237.990000,530.480000,237.990000L565.480000,246.990000Z" opacity=".1"/><path id="eo3pbhpubd2s89" fill="#000" stroke="none" stroke-width="1" d="M493.950000,313.390000C493.480000,318.060000,493.480000,320.990000,493.480000,320.990000C493.480000,320.990000,470.480000,339.990000,431.480000,310.990000C392.480000,281.990000,357.480000,289.990000,357.480000,289.990000C357.480000,289.990000,357.890000,287.670000,358.720000,283.990000C361.480000,278.340000,364.480000,275.990000,364.480000,275.990000L489.480000,299.990000L493.950000,313.390000Z" opacity=".1"/><path id="eo3pbhpubd2s90" fill="#FFF" stroke="none" stroke-width="1" d="M578.960000,207.940000C576.350000,228.290000,575.480000,253.940000,575.480000,253.940000C552.480000,271.940000,534.480000,248.940000,534.480000,248.940000C512.760000,254.770000,502.550000,273.780000,497.740000,290.370000C495.164000,299.344000,493.732000,308.607000,493.480000,317.940000C493.480000,317.940000,487.400000,322.940000,476.200000,323.940000C465.610000,324.830000,450.430000,322.070000,431.480000,307.940000C392.480000,278.940000,357.480000,286.940000,357.480000,286.940000C357.480000,286.940000,364.480000,246.940000,380.480000,234.940000C396.480000,222.940000,408.480000,207.940000,428.480000,161.940000C448.480000,115.940000,489.480000,126.940000,489.480000,126.940000C489.480000,126.940000,491.480000,117.940000,528.480000,126.940000C537.492000,129.302000,545.834000,133.721000,552.850000,139.850000C572.640000,156.490000,582.240000,182.300000,578.960000,207.940000Z"/><path id="eo3pbhpubd2s91" fill="#DB8B8B" stroke="none" stroke-width="1" d="M541.850000,149.490000C541.800000,150.820000,541.690000,152.300000,541.510000,153.950000C539.510000,171.950000,537.510000,169.950000,515.510000,173.950000C501.830000,176.440000,494.720000,165.010000,491.300000,156.010000C490.062000,152.750000,489.128000,149.382000,488.510000,145.950000L536.510000,137.950000C536.510000,137.950000,542.260000,136.340000,541.850000,149.490000Z"/><path id="eo3pbhpubd2s92" fill="#000" stroke="none" stroke-width="1" d="M497.740000,290.420000C495.164000,299.394000,493.732000,308.657000,493.480000,317.990000C493.480000,317.990000,487.400000,322.990000,476.200000,323.990000C475.884000,323.353000,475.643000,322.682000,475.480000,321.990000C473.480000,312.990000,458.480000,296.990000,458.480000,296.990000C448.480000,287.990000,446.480000,271.990000,446.480000,271.990000L429.980000,223.490000L424.480000,218.990000C424.480000,218.990000,447.480000,200.990000,467.480000,215.990000C487.480000,230.990000,481.480000,262.990000,481.480000,262.990000L485.480000,273.990000C489.630000,277.490000,493.850000,283.660000,497.740000,290.420000Z" opacity=".05"/><path id="eo3pbhpubd2s93" fill="#DB8B8B" stroke="none" stroke-width="1" d="M427.480000,217.990000L449.480000,270.990000C449.480000,270.990000,451.480000,286.990000,461.480000,295.990000C461.480000,295.990000,476.480000,311.990000,478.480000,320.990000C480.480000,329.990000,508.480000,353.990000,508.480000,353.990000C508.480000,353.990000,534.480000,377.990000,536.480000,386.990000C536.480000,386.990000,560.480000,393.990000,557.480000,407.990000C557.480000,407.990000,575.480000,389.990000,557.480000,372.990000C539.480000,355.990000,515.480000,320.990000,515.480000,320.990000C515.480000,320.990000,501.480000,283.990000,488.480000,272.990000L484.480000,261.990000C484.480000,261.990000,490.480000,229.990000,470.480000,214.990000C450.480000,199.990000,427.480000,217.990000,427.480000,217.990000Z"/><path id="eo3pbhpubd2s94" fill="#000" stroke="none" stroke-width="1" d="M440.480000,596.990000L414.480000,610.990000L406.480000,604.990000L406.480000,600.990000C415.464000,600.352000,424.193000,597.718000,432.030000,593.280000C434.430000,591.920000,436.690000,590.580000,438.500000,589.400000C439.550000,594.030000,440.480000,596.990000,440.480000,596.990000Z" opacity=".1"/><path id="eo3pbhpubd2s95" fill="#000" stroke="none" stroke-width="1" d="M470.480000,175.990000L484.480000,230.990000C484.480000,230.990000,441.480000,237.990000,432.480000,230.990000C423.480000,223.990000,406.480000,221.990000,406.480000,221.990000C406.480000,221.990000,424.480000,169.990000,434.480000,163.990000C444.480000,157.990000,470.480000,175.990000,470.480000,175.990000Z" opacity=".1"/><path id="eo3pbhpubd2s96" fill="#FFF" stroke="none" stroke-width="1" d="M470.480000,173.990000L484.480000,228.990000C484.480000,228.990000,441.480000,235.990000,432.480000,228.990000C423.480000,221.990000,406.480000,219.990000,406.480000,219.990000C406.480000,219.990000,424.480000,167.990000,434.480000,161.990000C444.480000,155.990000,470.480000,173.990000,470.480000,173.990000Z"/><path id="eo3pbhpubd2s97" fill="#000" stroke="none" stroke-width="1" d="M541.850000,148.490000C539.049000,152.356000,535.487000,155.609000,531.383000,158.047000C527.278000,160.485000,522.718000,162.058000,517.983000,162.669000C513.248000,163.280000,508.439000,162.915000,503.850000,161.598000C499.261000,160.281000,494.990000,158.039000,491.300000,155.010000C490.062000,151.750000,489.128000,148.382000,488.510000,144.950000L536.510000,136.950000C536.510000,136.950000,542.260000,135.340000,541.850000,148.490000Z" opacity=".1"/><path id="eo3pbhpubd2s98" fill="#DB8B8B" stroke="none" stroke-width="1" d="M548.480000,126.990000C548.480000,136.273000,544.793000,145.175000,538.229000,151.739000C531.665000,158.303000,522.763000,161.990000,513.480000,161.990000C504.197000,161.990000,495.295000,158.303000,488.731000,151.739000C482.168000,145.175000,478.480000,136.273000,478.480000,126.990000C478.480000,126.410000,478.480000,125.830000,478.480000,125.250000C478.711000,115.967000,482.620000,107.157000,489.346000,100.756000C496.073000,94.355500,505.067000,90.889300,514.350000,91.120000C523.633000,91.350800,532.443000,95.259500,538.844000,101.986000C545.245000,108.713000,548.711000,117.707000,548.480000,126.990000L548.480000,126.990000Z"/><path id="eo3pbhpubd2s99" fill="#000" stroke="none" stroke-width="1" d="M548.480000,126.990000C548.483000,130.216000,548.039000,133.426000,547.160000,136.530000C544.455000,137.120000,541.633000,136.861000,539.080000,135.790000C535.340000,134.320000,532.130000,131.790000,528.540000,129.970000C518.430000,124.850000,506.400000,125.860000,495.200000,127.550000C489.640000,128.390000,483.330000,129.170000,478.960000,125.630000C478.810000,125.511000,478.666000,125.385000,478.530000,125.250000C478.761000,115.967000,482.670000,107.157000,489.396000,100.756000C496.123000,94.355500,505.117000,90.889300,514.400000,91.120000C523.683000,91.350800,532.493000,95.259500,538.894000,101.986000C545.295000,108.713000,548.761000,117.707000,548.530000,126.990000L548.480000,126.990000Z" opacity=".1"/><path id="eo3pbhpubd2s100" fill="#472727" stroke="none" stroke-width="1" d="M453.160000,105.340000C455.290000,112.020000,465.520000,112.230000,470.770000,117.150000C473.500000,119.710000,474.770000,123.490000,477.770000,125.770000C481.940000,128.950000,487.960000,128.250000,493.270000,127.490000C503.960000,125.970000,515.440000,125.060000,525.080000,129.670000C528.500000,131.300000,531.570000,133.580000,535.140000,134.910000C538.710000,136.240000,543.140000,136.400000,546.040000,134.040000C548.360000,132.150000,549.210000,129.040000,551.310000,126.960000C552.940000,125.320000,555.210000,124.400000,557.070000,122.960000C561.150000,119.880000,562.910000,114.860000,564.070000,110.060000C566.470000,100.180000,567.160000,89.530000,563.070000,80.160000C558.980000,70.790000,549.140000,63.160000,538.400000,63.650000C535.110000,63.800000,531.900000,64.650000,528.620000,65.010000C520.070000,65.880000,511.620000,63.010000,503.040000,62.520000C500.551000,62.217200,498.027000,62.561600,495.710000,63.520000C493.963000,64.490800,492.457000,65.840600,491.300000,67.470000C487.372000,72.615400,484.682000,78.596900,483.440000,84.950000C482.440000,89.740000,482.390000,94.080000,476.520000,94.820000C469.850000,95.700000,448.650000,91.210000,453.160000,105.340000Z"/><path id="eo3pbhpubd2s101" fill="#000" stroke="none" stroke-width="1" d="M384.980000,234.490000C384.980000,234.490000,410.980000,241.490000,418.980000,259.490000C426.980000,277.490000,448.620000,280.780000,448.620000,280.780000" opacity=".05"/><path id="eo3pbhpubd2s102" fill="#E73C73" stroke="none" stroke-width="1" d="M482.980000,630.490000L422.980000,630.490000L422.980000,649.490000L482.980000,649.490000L482.980000,630.490000Z"/><path id="eo3pbhpubd2s103" fill="#000" stroke="none" stroke-width="1" d="M482.980000,630.490000L422.980000,630.490000L422.980000,649.490000L482.980000,649.490000L482.980000,630.490000Z" opacity=".1"/><path id="eo3pbhpubd2s104" fill="#ABB1D1" stroke="none" stroke-width="1" d="M431.990000,595.230000C437.360000,592.230000,442.070000,589.230000,442.480000,587.990000C442.480000,587.990000,456.030000,602.290000,468.100000,606.730000C472.159000,608.229000,476.044000,610.160000,479.690000,612.490000C484.470000,615.490000,491.290000,619.020000,497.480000,619.020000C497.480000,619.020000,511.480000,631.020000,484.480000,633.020000C457.480000,635.020000,394.480000,628.020000,394.480000,628.020000L398.480000,603.020000C410.167000,603.705000,421.804000,601,431.990000,595.230000Z"/></g><script><![CDATA[!function(t,n){"object"==typeof exports&&"undefined"!=typeof module?module.exports=n():"function"==typeof define&&define.amd?define(n):(t=t||self).__SVGATOR_PLAYER__=n()}(this,(function(){"use strict";function t(n){return(t="function"==typeof Symbol&&"symbol"==typeof Symbol.iterator?function(t){return typeof t}:function(t){return t&&"function"==typeof Symbol&&t.constructor===Symbol&&t!==Symbol.prototype?"symbol":typeof t})(n)}function n(t,n){if(!(t instanceof n))throw new TypeError("Cannot call a class as a function")}function r(t,n){for(var r=0;r<n.length;r++){var e=n[r];e.enumerable=e.enumerable||!1,e.configurable=!0,"value"in e&&(e.writable=!0),Object.defineProperty(t,e.key,e)}}function e(t,n,e){return n&&r(t.prototype,n),e&&r(t,e),t}var i=Math.abs;function u(t){return t}function o(t,n,r){var e=1-r;return 3*r*e*(t*e+n*r)+r*r*r}function a(){var t=arguments.length>0&&void 0!==arguments[0]?arguments[0]:0,n=arguments.length>1&&void 0!==arguments[1]?arguments[1]:0,r=arguments.length>2&&void 0!==arguments[2]?arguments[2]:1,e=arguments.length>3&&void 0!==arguments[3]?arguments[3]:1;return t<0||t>1||r<0||r>1?null:i(t-n)<=1e-5&&i(r-e)<=1e-5?u:function(u){if(u<=0)return t>0?u*n/t:0===n&&r>0?u*e/r:0;if(u>=1)return r<1?1+(u-1)*(e-1)/(r-1):1===r&&t<1?1+(u-1)*(n-1)/(t-1):1;for(var a,l=0,f=1;l<f;){var s=o(t,r,a=(l+f)/2);if(i(u-s)<1e-5)break;s<u?l=a:f=a}return o(n,e,a)}}function l(){return 1}function f(t){return 1===t?1:0}function s(){var t=arguments.length>0&&void 0!==arguments[0]?arguments[0]:1,n=arguments.length>1&&void 0!==arguments[1]?arguments[1]:0;if(1===t){if(0===n)return f;if(1===n)return l}var r=1/t;return function(t){return t>=1?1:(t+=n*r)-t%r}}function c(t){var n=arguments.length>1&&void 0!==arguments[1]?arguments[1]:2;if(Number.isInteger(t))return t;var r=Math.pow(10,n);return Math.round(t*r)/r}var v=Math.PI/180;function h(t,n,r){return t>=.5?r:n}function y(t,n,r){return 0===t||n===r?n:t*(r-n)+n}function d(t,n,r){var e=y(t,n,r);return e<=0?0:e}function g(t,n,r){return 0===t?n:1===t?r:{x:y(t,n.x,r.x),y:y(t,n.y,r.y)}}function m(t,n,r){return 0===t?n:1===t?r:{x:d(t,n.x,r.x),y:d(t,n.y,r.y)}}function p(t,n,r){var e=function(t,n,r){return Math.round(y(t,n,r))}(t,n,r);return e<=0?0:e>=255?255:e}function b(t,n,r){return 0===t?n:1===t?r:{r:p(t,n.r,r.r),g:p(t,n.g,r.g),b:p(t,n.b,r.b),a:y(t,null==n.a?1:n.a,null==r.a?1:r.a)}}function w(t,n,r){if(0===t)return n;if(1===t)return r;var e=n.length;if(e!==r.length)return h(t,n,r);for(var i=[],u=0;u<e;u++)i.push(b(t,n[u],r[u]));return i}function A(t,n,r){var e=n.length;if(e!==r.length)return h(t,n,r);for(var i=new Array(e),u=0;u<e;u++)i[u]=y(t,n[u],r[u]);return i}function x(t,n){for(var r=[],e=0;e<t;e++)r.push(n);return r}function k(t,n){if(--n<=0)return t;var r=(t=Object.assign([],t)).length;do{for(var e=0;e<r;e++)t.push(t[e])}while(--n>0);return t}var S=/\.0+$/g;function _(t){return Number.isInteger(t)?t+"":t.toFixed(6).replace(S,"")}function M(t){var n=arguments.length>1&&void 0!==arguments[1]?arguments[1]:" ";return t&&t.length?t.map(_).join(n):""}function I(t){return _(t.x)+","+_(t.y)}function E(t){return t?null==t.a||t.a>=1?"rgb("+t.r+","+t.g+","+t.b+")":"rgba("+t.r+","+t.g+","+t.b+","+t.a+")":"transparent"}var F={f:null,i:m,u:function(t,n){return function(r){var e=n(r);t.setAttribute("rx",_(e.x)),t.setAttribute("ry",_(e.y))}}},B={f:null,i:function(t,n,r){return 0===t?n:1===t?r:{width:d(t,n.width,r.width),height:d(t,n.height,r.height)}},u:function(t,n){return function(r){var e=n(r);t.setAttribute("width",_(e.width)),t.setAttribute("height",_(e.height))}}},j=Math.sin,q=Math.cos,P=Math.acos,O=Math.asin,z=Math.tan,L=Math.atan2,C=Math.PI/180,R=180/Math.PI,T=Math.sqrt,V=function(){function t(){var r=arguments.length>0&&void 0!==arguments[0]?arguments[0]:1,e=arguments.length>1&&void 0!==arguments[1]?arguments[1]:0,i=arguments.length>2&&void 0!==arguments[2]?arguments[2]:0,u=arguments.length>3&&void 0!==arguments[3]?arguments[3]:1,o=arguments.length>4&&void 0!==arguments[4]?arguments[4]:0,a=arguments.length>5&&void 0!==arguments[5]?arguments[5]:0;n(this,t),this.m=[r,e,i,u,o,a],this.i=null,this.w=null,this.s=null}return e(t,[{key:"point",value:function(t,n){var r=this.m;return{x:r[0]*t+r[2]*n+r[4],y:r[1]*t+r[3]*n+r[5]}}},{key:"translateSelf",value:function(){var t=arguments.length>0&&void 0!==arguments[0]?arguments[0]:0,n=arguments.length>1&&void 0!==arguments[1]?arguments[1]:0;if(!t&&!n)return this;var r=this.m;return r[4]+=r[0]*t+r[2]*n,r[5]+=r[1]*t+r[3]*n,this.w=this.s=this.i=null,this}},{key:"rotateSelf",value:function(){var t=arguments.length>0&&void 0!==arguments[0]?arguments[0]:0;if(t%=360){var n=j(t*=C),r=q(t),e=this.m,i=e[0],u=e[1];e[0]=i*r+e[2]*n,e[1]=u*r+e[3]*n,e[2]=e[2]*r-i*n,e[3]=e[3]*r-u*n,this.w=this.s=this.i=null}return this}},{key:"scaleSelf",value:function(){var t=arguments.length>0&&void 0!==arguments[0]?arguments[0]:1,n=arguments.length>1&&void 0!==arguments[1]?arguments[1]:1;if(1!==t||1!==n){var r=this.m;r[0]*=t,r[1]*=t,r[2]*=n,r[3]*=n,this.w=this.s=this.i=null}return this}},{key:"skewSelf",value:function(t,n){if(n%=360,(t%=360)||n){var r=this.m,e=r[0],i=r[1],u=r[2],o=r[3];t&&(t=z(t*C),r[2]+=e*t,r[3]+=i*t),n&&(n=z(n*C),r[0]+=u*n,r[1]+=o*n),this.w=this.s=this.i=null}return this}},{key:"resetSelf",value:function(){var t=arguments.length>0&&void 0!==arguments[0]?arguments[0]:1,n=arguments.length>1&&void 0!==arguments[1]?arguments[1]:0,r=arguments.length>2&&void 0!==arguments[2]?arguments[2]:0,e=arguments.length>3&&void 0!==arguments[3]?arguments[3]:1,i=arguments.length>4&&void 0!==arguments[4]?arguments[4]:0,u=arguments.length>5&&void 0!==arguments[5]?arguments[5]:0,o=this.m;return o[0]=t,o[1]=n,o[2]=r,o[3]=e,o[4]=i,o[5]=u,this.w=this.s=this.i=null,this}},{key:"recomposeSelf",value:function(){var t=arguments.length>0&&void 0!==arguments[0]?arguments[0]:null,n=arguments.length>1&&void 0!==arguments[1]?arguments[1]:null,r=arguments.length>2&&void 0!==arguments[2]?arguments[2]:null,e=arguments.length>3&&void 0!==arguments[3]?arguments[3]:null,i=arguments.length>4&&void 0!==arguments[4]?arguments[4]:null;return this.isIdentity||this.resetSelf(),t&&(t.x||t.y)&&this.translateSelf(t.x,t.y),n&&this.rotateSelf(n),r&&(r.x&&this.skewSelf(r.x,0),r.y&&this.skewSelf(0,r.y)),!e||1===e.x&&1===e.y||this.scaleSelf(e.x,e.y),i&&(i.x||i.y)&&this.translateSelf(i.x,i.y),this}},{key:"decompose",value:function(){var t=arguments.length>0&&void 0!==arguments[0]?arguments[0]:0,n=arguments.length>1&&void 0!==arguments[1]?arguments[1]:0,r=this.m,e=r[0]*r[0]+r[1]*r[1],i=[[r[0],r[1]],[r[2],r[3]]],u=T(e);if(0===u)return{origin:{x:r[4],y:r[5]},translate:{x:t,y:n},scale:{x:0,y:0},skew:{x:0,y:0},rotate:0};i[0][0]/=u,i[0][1]/=u;var o=r[0]*r[3]-r[1]*r[2]<0;o&&(u=-u);var a=i[0][0]*i[1][0]+i[0][1]*i[1][1];i[1][0]-=i[0][0]*a,i[1][1]-=i[0][1]*a;var l=T(i[1][0]*i[1][0]+i[1][1]*i[1][1]);if(0===l)return{origin:{x:r[4],y:r[5]},translate:{x:t,y:n},scale:{x:u,y:0},skew:{x:0,y:0},rotate:0};i[1][0]/=l,i[1][1]/=l,a/=l;var f=0;return i[1][1]<0?(f=P(i[1][1])*R,i[0][1]<0&&(f=360-f)):f=O(i[0][1])*R,o&&(f=-f),a=L(a,T(i[0][0]*i[0][0]+i[0][1]*i[0][1]))*R,{origin:{x:r[4],y:r[5]},translate:{x:t,y:n},scale:{x:u,y:l},skew:{x:a,y:0},rotate:f}}},{key:"toString",value:function(){return null===this.s&&(this.s="matrix("+this.m.map(N).join(" ")+")"),this.s}},{key:"determinant",get:function(){var t=this.m;return t[0]*t[3]-t[1]*t[2]}},{key:"isIdentity",get:function(){if(null===this.i){var t=this.m;this.i=1===t[0]&&0===t[1]&&0===t[2]&&1===t[3]&&0===t[4]&&0===t[5]}return this.i}}]),t}(),D=/\.0+$/;function N(t){return Number.isInteger(t)?t:t.toFixed(14).replace(D,"")}Object.freeze({M:2,L:2,Z:0,H:1,V:1,C:6,Q:4,T:2,S:4,A:7});function G(t,n,r){return t+(n-t)*r}function $(t,n,r){var e=arguments.length>3&&void 0!==arguments[3]&&arguments[3],i={x:G(t.x,n.x,r),y:G(t.y,n.y,r)};return e&&(i.a=H(t,n)),i}function H(t,n){return Math.atan2(n.y-t.y,n.x-t.x)}function Q(t,n,r,e){var i=1-e;return i*i*t+2*i*e*n+e*e*r}function U(t,n,r,e){return 2*(1-e)*(n-t)+2*e*(r-n)}function Y(t,n,r,e){var i=arguments.length>4&&void 0!==arguments[4]&&arguments[4],u={x:Q(t.x,n.x,r.x,e),y:Q(t.y,n.y,r.y,e)};return i&&(u.a=Z(t,n,r,e)),u}function Z(t,n,r,e){return Math.atan2(U(t.y,n.y,r.y,e),U(t.x,n.x,r.x,e))}function J(t,n,r,e,i){var u=i*i;return i*u*(e-t+3*(n-r))+3*u*(t+r-2*n)+3*i*(n-t)+t}function K(t,n,r,e,i){var u=1-i;return 3*(u*u*(n-t)+2*u*i*(r-n)+i*i*(e-r))}function W(t,n,r,e,i){var u=arguments.length>5&&void 0!==arguments[5]&&arguments[5],o={x:J(t.x,n.x,r.x,e.x,i),y:J(t.y,n.y,r.y,e.y,i)};return u&&(o.a=X(t,n,r,e,i)),o}function X(t,n,r,e,i){return Math.atan2(K(t.y,n.y,r.y,e.y,i),K(t.x,n.x,r.x,e.x,i))}function tt(t,n,r){var e=arguments.length>3&&void 0!==arguments[3]&&arguments[3];if(rt(n)){if(et(r))return Y(n,r.start,r,t,e)}else if(rt(r)){if(n.end)return Y(n,n.end,r,t,e)}else{if(n.end)return r.start?W(n,n.end,r.start,r,t,e):Y(n,n.end,r,t,e);if(r.start)return Y(n,r.start,r,t,e)}return $(n,r,t,e)}function nt(t,n,r){var e=tt(t,n,r,!0);return e.a=function(t){var n=arguments.length>1&&void 0!==arguments[1]&&arguments[1];return n?t+Math.PI:t}(e.a)/v,e}function rt(t){return!t.type||"corner"===t.type}function et(t){return null!=t.start&&!rt(t)}var it=new V;var ut={f:function(t){return t?t.join(" "):""},i:function(n,r,e){if(0===n)return r;if(1===n)return e;var i=r.length;if(i!==e.length)return h(n,r,e);for(var u,o=new Array(i),a=0;a<i;a++){if((u=t(r[a]))!==t(e[a]))return h(n,r,e);if("number"===u)o[a]=y(n,r[a],e[a]);else{if(r[a]!==e[a])return h(n,r,e);o[a]=r[a]}}return o}},ot={f:null,i:A,u:function(t,n){return function(r){var e=n(r);t.setAttribute("x1",_(e[0])),t.setAttribute("y1",_(e[1])),t.setAttribute("x2",_(e[2])),t.setAttribute("y2",_(e[3]))}}},at={f:_,i:y},lt={f:_,i:function(t,n,r){var e=y(t,n,r);return e<=0?0:e>=1?1:e}},ft={f:M,i:function(t,n,r){var e,i,u,o=n.length,a=r.length;if(o!==a)if(0===o)n=x(o=a,0);else if(0===a)a=o,r=x(o,0);else{var l=(u=(e=o)*(i=a)/function(t,n){for(var r;n;)r=n,n=t%n,t=r;return t||1}(e,i))<0?-u:u;n=k(n,Math.floor(l/o)),r=k(r,Math.floor(l/a)),o=a=l}for(var f=[],s=0;s<o;s++)f.push(c(d(t,n[s],r[s]),6));return f}};function st(t,n,r,e,i,u,o,a){return n=function(t,n,r){for(var e,i,u,o=t.length-1,a={},l=0;l<=o;l++)(e=t[l]).e&&(e.e=n(e.e)),e.v&&"g"===(i=e.v).t&&i.r&&(u=r.getElementById(i.r))&&(a[i.r]=u.querySelectorAll("stop"));return a}(t,e,a),function(e){var i,u=r(e,t,ct);return u?"c"===u.t?E(u.v):"g"===u.t?(n[u.r]&&function(t,n){for(var r=0,e=t.length;r<e;r++)t[r].setAttribute("stop-color",E(n[r]))}(n[u.r],u.v),(i=u.r)?"url(#"+i+")":"none"):"none":"none"}}function ct(t,n,r){if(0===t)return n;if(1===t)return r;if(n&&r){var e=n.t;if(e===r.t)switch(n.t){case"c":return{t:e,v:b(t,n.v,r.v)};case"g":if(n.r===r.r)return{t:e,v:w(t,n.v,r.v),r:n.r}}}return h(t,n,r)}var vt={blur:m,brightness:d,contrast:d,"drop-shadow":function(t,n,r){return 0===t?n:1===t?r:{blur:m(t,n.blur,r.blur),offset:g(t,n.offset,r.offset),color:b(t,n.color,r.color)}},grayscale:d,"hue-rotate":y,invert:d,opacity:d,saturate:d,sepia:d};function ht(t,n,r){if(0===t)return n;if(1===t)return r;var e=n.length;if(e!==r.length)return h(t,n,r);for(var i,u=[],o=0;o<e;o++){if(n[o].type!==r[o].type)return n;if(!(i=vt[n[o].type]))return h(t,n,r);u.push({type:n.type,value:i(t,n[o].value,r[o].value)})}return u}var yt={blur:function(t){return t?function(n){t.setAttribute("stdDeviation",I(n))}:null},brightness:function(t,n,r){return(t=gt(r,n))?function(n){n=_(n),t.map((function(t){return t.setAttribute("slope",n)}))}:null},contrast:function(t,n,r){return(t=gt(r,n))?function(n){var r=_((1-n)/2);n=_(n),t.map((function(t){t.setAttribute("slope",n),t.setAttribute("intercept",r)}))}:null},"drop-shadow":function(t,n,r){var e=r.getElementById(n+"-blur");if(!e)return null;var i=r.getElementById(n+"-offset");if(!i)return null;var u=r.getElementById(n+"-flood");return u?function(t){e.setAttribute("stdDeviation",I(t.blur)),i.setAttribute("dx",_(t.offset.x)),i.setAttribute("dy",_(t.offset.y)),u.setAttribute("flood-color",E(t.color))}:null},grayscale:function(t){return t?function(n){t.setAttribute("values",M(function(t){return[.2126+.7874*(t=1-t),.7152-.7152*t,.0722-.0722*t,0,0,.2126-.2126*t,.7152+.2848*t,.0722-.0722*t,0,0,.2126-.2126*t,.7152-.7152*t,.0722+.9278*t,0,0,0,0,0,1,0]}(n)))}:null},"hue-rotate":function(t){return t?function(n){return t.setAttribute("values",_(n))}:null},invert:function(t,n,r){return(t=gt(r,n))?function(n){n=_(n)+" "+_(1-n),t.map((function(t){return t.setAttribute("tableValues",n)}))}:null},opacity:function(t,n,r){return(t=r.getElementById(n+"-A"))?function(n){return t.setAttribute("tableValues","0 "+_(n))}:null},saturate:function(t){return t?function(n){return t.setAttribute("values",_(n))}:null},sepia:function(t){return t?function(n){return t.setAttribute("values",M(function(t){return[.393+.607*(t=1-t),.769-.769*t,.189-.189*t,0,0,.349-.349*t,.686+.314*t,.168-.168*t,0,0,.272-.272*t,.534-.534*t,.131+.869*t,0,0,0,0,0,1,0]}(n)))}:null}};var dt=["R","G","B"];function gt(t,n){var r=dt.map((function(r){return t.getElementById(n+"-"+r)||null}));return-1!==r.indexOf(null)?null:r}var mt={fill:st,"fill-opacity":lt,stroke:st,"stroke-opacity":lt,"stroke-width":at,"stroke-dashoffset":{f:_,i:y},"stroke-dasharray":ft,opacity:lt,transform:function(n,r,e,i){if(!(n=function(n,r){if(!n||"object"!==t(n))return null;var e=!1;for(var i in n)n.hasOwnProperty(i)&&(n[i]&&n[i].length?(n[i].forEach((function(t){t.e&&(t.e=r(t.e))})),e=!0):delete n[i]);return e?n:null}(n,i)))return null;var u=function(t,i,u){var o=arguments.length>3&&void 0!==arguments[3]?arguments[3]:null;return n[t]?e(i,n[t],u):r&&r[t]?r[t]:o};return r&&r.a&&n.o?function(t){var r=e(t,n.o,nt);return it.recomposeSelf(r,u("r",t,y,0)+r.a,u("k",t,g),u("s",t,g),u("t",t,g)).toString()}:function(t){return it.recomposeSelf(u("o",t,tt,null),u("r",t,y,0),u("k",t,g),u("s",t,g),u("t",t,g)).toString()}},"#filter":function(t,n,r,e,i,u,o,a){if(!n.items||!t||!t.length)return null;var l=function(t,n){var r=(t=t.map((function(t){return t&&yt[t[0]]?(n.getElementById(t[1]),yt[t[0]](n.getElementById(t[1]),t[1],n)):null}))).length;return function(n){for(var e=0;e<r;e++)t[e]&&t[e](n[e].value)}}(n.items,a);return l?(t=function(t,n){return t.map((function(t){return t.e=n(t.e),t}))}(t,e),function(n){l(r(n,t,ht))}):null},"#line":ot,points:{f:M,i:A},d:ut,r:at,"#size":B,"#radius":F,_:function(t,n){if(Array.isArray(t))for(var r=0;r<t.length;r++)this[t[r]]=n;else this[t]=n}},pt=function(){function t(r){n(this,t),this.list=r,this.length=r.length}return e(t,[{key:"setAttribute",value:function(t,n){for(var r=this.list,e=0;e<this.length;e++)r[e].setAttribute(t,n)}},{key:"removeAttribute",value:function(t){for(var n=this.list,r=0;r<this.length;r++)n[r].removeAttribute(t)}},{key:"style",value:function(t,n){for(var r=this.list,e=0;e<this.length;e++)r[e].style[t]=n}}]),t}(),bt=/-./g,wt=function(t,n){return n.toUpperCase()};function At(t){return"function"==typeof t?t:h}function xt(t){return t?"function"==typeof t?t:Array.isArray(t)?function(t){var n=arguments.length>1&&void 0!==arguments[1]?arguments[1]:u;if(!Array.isArray(t))return n;switch(t.length){case 1:return s(t[0])||n;case 2:return s(t[0],t[1])||n;case 4:return a(t[0],t[1],t[2],t[3])||n}return n}(t,null):function(t,n){var r=arguments.length>2&&void 0!==arguments[2]?arguments[2]:u;switch(t){case"linear":return u;case"steps":return s(n.steps||1,n.jump||0)||r;case"bezier":case"cubic-bezier":return a(n.x1||0,n.y1||0,n.x2||0,n.y2||0)||r}return r}(t.type,t.value,null):null}function kt(t,n,r){var e=arguments.length>3&&void 0!==arguments[3]&&arguments[3],i=n.length-1;if(t<=n[0].t)return e?[0,0,n[0].v]:n[0].v;if(t>=n[i].t)return e?[i,1,n[i].v]:n[i].v;var u,o=n[0],a=null;for(u=1;u<=i;u++){if(!(t>n[u].t)){a=n[u];break}o=n[u]}return null==a?e?[i,1,n[i].v]:n[i].v:o.t===a.t?e?[u,1,a.v]:a.v:(t=(t-o.t)/(a.t-o.t),o.e&&(t=o.e(t)),e?[u,t,r(t,o.v,a.v)]:r(t,o.v,a.v))}function St(t,n){var r=arguments.length>2&&void 0!==arguments[2]?arguments[2]:null;return t&&t.length?"function"!=typeof n?null:("function"!=typeof r&&(r=null),function(e){var i=kt(e,t,n);return null!=i&&r&&(i=r(i)),i}):null}function _t(t,n){return t.t-n.t}function Mt(n,r,e,i,u){var o,a="@"===e[0],l="#"===e[0],f=mt[e],s=h;switch(a?(o=e.substr(1),e=o.replace(bt,wt)):l&&(e=e.substr(1)),t(f)){case"function":if(s=f(i,u,kt,xt,e,a,r,n),l)return s;break;case"string":s=St(i,At(f));break;case"object":if((s=St(i,At(f.i),f.f))&&"function"==typeof f.u)return f.u(r,s,e,a,n)}return s?function(t,n,r){var e=arguments.length>3&&void 0!==arguments[3]&&arguments[3];if(e)return t instanceof pt?function(e){return t.style(n,r(e))}:function(e){return t.style[n]=r(e)};if(Array.isArray(n)){var i=n.length;return function(e){var u=r(e);if(null==u)for(var o=0;o<i;o++)t[o].removeAttribute(n);else for(var a=0;a<i;a++)t[a].setAttribute(n,u)}}return function(e){var i=r(e);null==i?t.removeAttribute(n):t.setAttribute(n,i)}}(r,e,s,a):null}function It(n,r,e,i){if(!i||"object"!==t(i))return null;var u=null,o=null;return Array.isArray(i)?o=function(t){if(!t||!t.length)return null;for(var n=0;n<t.length;n++)t[n].e&&(t[n].e=xt(t[n].e));return t.sort(_t)}(i):(o=i.keys,u=i.data||null),o?Mt(n,r,e,o,u):null}function Et(t,n,r){if(!r)return null;var e=[];for(var i in r)if(r.hasOwnProperty(i)){var u=It(t,n,i,r[i]);u&&e.push(u)}return e.length?e:null}function Ft(t,n){if(!n.duration||n.duration<0)return null;var r=function(t,n){if(!n)return null;var r=[];if(Array.isArray(n))for(var e=n.length,i=0;i<e;i++){var u=n[i];if(2===u.length){var o=null;if("string"==typeof u[0])o=t.getElementById(u[0]);else if(Array.isArray(u[0])){o=[];for(var a=0;a<u[0].length;a++)if("string"==typeof u[0][a]){var l=t.getElementById(u[0][a]);l&&o.push(l)}o=o.length?1===o.length?o[0]:new pt(o):null}if(o){var f=Et(t,o,u[1]);f&&(r=r.concat(f))}}}else for(var s in n)if(n.hasOwnProperty(s)){var c=t.getElementById(s);if(c){var v=Et(t,c,n[s]);v&&(r=r.concat(v))}}return r.length?r:null}(t,n.elements);return r?function(t,n){var r=arguments.length>2&&void 0!==arguments[2]?arguments[2]:1/0,e=arguments.length>3&&void 0!==arguments[3]?arguments[3]:1,i=arguments.length>4&&void 0!==arguments[4]&&arguments[4],u=arguments.length>5&&void 0!==arguments[5]?arguments[5]:1,o=t.length,a=e>0?n:0;i&&r%2==0&&(a=n-a);var l=null;return function(f,s){var c=f%n,v=1+(f-c)/n;s*=e,i&&v%2==0&&(s=-s);var h=!1;if(v>r)c=a,h=!0,-1===u&&(c=e>0?0:n);else if(s<0&&(c=n-c),c===l)return!1;l=c;for(var y=0;y<o;y++)t[y](c);return h}}(r,n.duration,n.iterations||1/0,n.direction||1,!!n.alternate,n.fill||1):null}var Bt=function(){function t(r){var e=arguments.length>1&&void 0!==arguments[1]?arguments[1]:{};n(this,t),this._id=0,this._running=!1,this._animations=r,this.direction=e.direction||1,this.speed=e.speed||1,this.fps=e.fps||100,this.offset=e.offset||0}return e(t,[{key:"_start",value:function(){var t=this,n=arguments.length>0&&void 0!==arguments[0]?arguments[0]:0,r=-1/0,e=null,i={},u=function u(o){t._running=!0,null==e&&(e=o);var a=Math.round((o-e+n)*t.speed),l=t.fps?1e3/t.fps:0;if(a>r+l){t.offset=a,r=a;for(var f=t._animations,s=f.length,c=0,v=0;v<s;v++)i[v]?c++:(i[v]=f[v](a,t.direction),i[v]&&c++);if(c===s)return void t._stop()}t._id=window.requestAnimationFrame(u)};this._id=window.requestAnimationFrame(u)}},{key:"_stop",value:function(){this._id&&window.cancelAnimationFrame(this._id),this._running=!1}},{key:"play",value:function(){this._running||this._start(this.offset)}},{key:"stop",value:function(){this._stop(),this.offset=0;var t=this.direction,n=this._animations;requestAnimationFrame((function(){for(var r=0;r<n.length;r++)n[r](0,t)}))}},{key:"restart",value:function(){this._stop(),this.offset=0,this._start()}},{key:"pause",value:function(){this._stop()}},{key:"reverse",value:function(){this.direction=-this.direction}}],[{key:"build",value:function(n){if(!(n=function(t){if(!t||!t.root||!Array.isArray(t.animations))return null;var n=window.document.getElementById(t.root);if(!n)return null;var r=t.animations.map((function(t){return Ft(n,t)})).filter((function(t){return!!t}));return r.length?{element:n,animations:r,options:t.options||void 0}:null}(n)))return null;var r=n.element,e=n.options||{},i=new t(n.animations,n.options);return function(t,n,r){var e=arguments.length>3&&void 0!==arguments[3]?arguments[3]:null;if("click"===r){var i=function r(){n.removeEventListener("click",r),t.play()};return void n.addEventListener("click",i)}if("hover"===r)return n.addEventListener("mouseenter",(function(){return t.play()})),void n.addEventListener("mouseleave","freeze"===e?function(){return t.pause()}:function(){return t.stop()});t.play()}(i,r,e.start,e.hover),i}}]),t}();return function(){for(var t=0,n=["ms","moz","webkit","o"],r=0;r<n.length&&!window.requestAnimationFrame;++r)window.requestAnimationFrame=window[n[r]+"RequestAnimationFrame"],window.cancelAnimationFrame=window[n[r]+"CancelAnimationFrame"]||window[n[r]+"CancelRequestAnimationFrame"];window.requestAnimationFrame||(window.requestAnimationFrame=function(n){var r=Date.now(),e=Math.max(0,16-(r-t)),i=window.setTimeout((function(){n(r+e)}),e);return t=r+e,i},window.cancelAnimationFrame=window.clearTimeout)}(),Bt}));
__SVGATOR_PLAYER__.build({"root":"eo3pbhpubd2s1","animations":[{"duration":2500,"direction":1,"iterations":0,"fill":1,"alternate":false,"elements":{"eo3pbhpubd2s71":{"transform":{"data":{"o":{"x":250.146484375,"y":615.86328125,"type":"corner"},"t":{"x":-250.146484375,"y":-615.86328125}},"keys":{"r":[{"t":0,"v":0},{"t":2500,"v":360}]}}},"eo3pbhpubd2s76":{"transform":{"data":{"o":{"x":676.2734375,"y":616.310546875,"type":"corner"},"t":{"x":-676.2734375,"y":-616.310546875}},"keys":{"r":[{"t":0,"v":0},{"t":2500,"v":360}]}}}}}],"options":{"start":"load","hover":"freeze"}})]]></script></svg>