<?xml version="1.0" encoding="iso-8859-1"?>
<!-- Generator: Adobe Illustrator 18.1.1, SVG Export Plug-In . SVG Version: 6.00 Build 0)  -->
<svg version="1.1" id="Capa_1" xmlns="http://www.w3.org/2000/svg" xmlns:xlink="http://www.w3.org/1999/xlink" x="0px" y="0px"
	 viewBox="0 0 19.22 19.22" style="enable-background:new 0 0 19.22 19.22;" xml:space="preserve">
<g>
	<path d="M18.029,5.13c-1.452-2.841-5.127-5.528-9.752-4.876C0.865,1.295-3.04,10.682,2.878,16.452
		C10.036,23.431,23.25,15.328,18.029,5.13z M7.581,18.541c-3.828-0.652-7.065-4.636-7.141-8.708
		C0.343,4.748,3.871,1.395,8.104,0.775c5.924-0.869,11.265,3.456,10.449,10.103C17.885,16.331,12.805,19.432,7.581,18.541z
		 M5.84,5.479C5.605,5.768,4.851,5.537,4.62,5.827c0.95,2.88,1.793,5.87,2.961,8.533c1.114-2.884,2.343-5.696,0.522-8.533
		c-0.292-0.29-1.273,0.111-1.22-0.523c0.778-0.312,4.271-0.312,5.05,0c-0.002,0.578-0.982,0.177-1.219,0.523
		c0.963,2.811,1.735,5.814,2.961,8.36c0.327-2.11,1.444-2.872,1.393-5.052c-0.055-2.484-3.17-4.662-0.174-5.748
		C11.977,0.257,4.153,1.215,2.878,5.13C4.041,5.38,5.613,4.608,5.84,5.479z M13.676,16.452c3.17-1.164,5.382-6.925,2.96-10.452
		C16.688,9.838,14.62,13.03,13.676,16.452z M5.84,16.8C4.671,13.206,3.468,9.648,2.007,6.35C0.334,10.7,2.473,15.388,5.84,16.8z
		 M7.231,17.322c1.154,0.604,3.683,0.419,4.876,0c-0.761-2.374-1.339-4.929-2.612-6.793C8.884,12.937,8.044,15.117,7.231,17.322z"/>
	<g>
	</g>
	<g>
	</g>
	<g>
	</g>
	<g>
	</g>
	<g>
	</g>
	<g>
	</g>
	<g>
	</g>
	<g>
	</g>
	<g>
	</g>
	<g>
	</g>
	<g>
	</g>
	<g>
	</g>
	<g>
	</g>
	<g>
	</g>
	<g>
	</g>
</g>
<g>
</g>
<g>
</g>
<g>
</g>
<g>
</g>
<g>
</g>
<g>
</g>
<g>
</g>
<g>
</g>
<g>
</g>
<g>
</g>
<g>
</g>
<g>
</g>
<g>
</g>
<g>
</g>
<g>
</g>
</svg>
